<svg xmlns="http://www.w3.org/2000/svg" xmlns:xlink="http://www.w3.org/1999/xlink" width="30" height="149" viewBox="0 0 30 149"><defs><style>.a{fill:none;}.b{opacity:0;clip-path:url(#a);}.c{fill:#2a0707;stroke:#707070;stroke-width:4px;}.d{fill:#fd8524;}.e{fill:#55f28c;font-size:20px;font-family:SegoeUI-Bold, Segoe UI;font-weight:700;}.f{fill:#9b9b9b;}.g{fill:#fff;}.h{stroke:none;}</style><clipPath id="a"><rect class="a" width="30" height="149"/></clipPath></defs><g transform="translate(-1.205)"><g class="b" transform="translate(1.205)"><g transform="translate(1096 -408)"><g class="c" transform="translate(-1096 408)"><rect class="h" width="30" height="30"/><rect class="a" x="2" y="2" width="26" height="26"/></g></g><g transform="translate(1096 -378)"><g class="c" transform="translate(-1096 408)"><rect class="h" width="30" height="30"/><rect class="a" x="2" y="2" width="26" height="26"/></g></g><g transform="translate(1096 -348)"><g class="c" transform="translate(-1096 408)"><rect class="h" width="30" height="30"/><rect class="a" x="2" y="2" width="26" height="26"/></g></g><g transform="translate(1096 -318)"><g class="c" transform="translate(-1096 408)"><rect class="h" width="30" height="30"/><rect class="a" x="2" y="2" width="26" height="26"/></g></g><g transform="translate(1096 -288)"><g class="c" transform="translate(-1096 408)"><rect class="h" width="30" height="30"/><rect class="a" x="2" y="2" width="26" height="26"/></g></g></g><path class="d" d="M439.167,258.84c.3-1.976-1.209-3.038-3.266-3.745l.668-2.677-1.629-.406-.65,2.6c-.428-.107-.868-.207-1.306-.307l.653-2.624-1.626-.405-.668,2.676c-.354-.081-.7-.161-1.04-.245V253.7l-2.246-.563-.435,1.742s1.209.277,1.184.294a.867.867,0,0,1,.759.948l-.76,3.048a1.334,1.334,0,0,1,.169.054l-.174-.044-1.066,4.272a.593.593,0,0,1-.747.387c.016.023-1.184-.3-1.184-.3l-.8,1.867,2.118.529c.394.1.781.2,1.162.3l-.674,2.7,1.628.406.668-2.678c.445.121.876.232,1.3.337l-.665,2.666,1.629.406.674-2.7c2.779.526,4.868.314,5.748-2.2a2.859,2.859,0,0,0-1.5-3.952A2.6,2.6,0,0,0,439.167,258.84Zm-3.723,5.22c-.5,2.023-3.91.93-5.015.653l.895-3.587C432.429,261.4,435.973,261.95,435.445,264.06Zm.5-5.25c-.459,1.841-3.3.905-4.215.676l.811-3.255C433.465,256.463,436.427,256.891,435.949,258.81Z" transform="translate(-463.718 -141.818) rotate(-13)"/><text class="e" transform="translate(10.205 52)"><tspan x="0" y="0">$</tspan></text><path class="f" d="M6.99,11,3,15l3.99,4V16H14V14H6.99ZM21,9,17.01,5V8H10v2h7.01v3Z" transform="translate(4.205 87) rotate(-90)"/><path class="g" d="M12,4V1L8,5l4,4V6a6,6,0,0,1,6,6,5.87,5.87,0,0,1-.7,2.8l1.46,1.46A7.986,7.986,0,0,0,12,4Zm0,14a6,6,0,0,1-6-6,5.87,5.87,0,0,1,.7-2.8L5.24,7.74A7.986,7.986,0,0,0,12,20v3l4-4-4-4Z" transform="translate(4.205 93)"/></g></svg>